<svg width="80" height="80" viewBox="0 0 80 80" fill="none" xmlns="http://www.w3.org/2000/svg">
<path d="M80 40C80 62.0914 62.0914 80 40 80C17.9086 80 0 62.0914 0 40C0 17.9086 17.9086 0 40 0C62.0914 0 80 17.9086 80 40Z" fill="#F3EDFF"/>
<path d="M56.875 55H56.25V48.75H56.875C57.3723 48.75 57.8492 48.5525 58.2008 48.2008C58.5525 47.8492 58.75 47.3723 58.75 46.875C58.75 46.3777 58.5525 45.9008 58.2008 45.5492C57.8492 45.1975 57.3723 45 56.875 45H56.25V23.125C56.25 22.6277 56.0525 22.1508 55.7008 21.7992C55.3492 21.4475 54.8723 21.25 54.375 21.25H25.625C25.1277 21.25 24.6508 21.4475 24.2992 21.7992C23.9475 22.1508 23.75 22.6277 23.75 23.125V45H23.125C22.6277 45 22.1508 45.1975 21.7992 45.5492C21.4475 45.9008 21.25 46.3777 21.25 46.875C21.25 47.3723 21.4475 47.8492 21.7992 48.2008C22.1508 48.5525 22.6277 48.75 23.125 48.75H23.75V55H23.125C22.6277 55 22.1508 55.1975 21.7992 55.5492C21.4475 55.9008 21.25 56.3777 21.25 56.875C21.25 57.3723 21.4475 57.8492 21.7992 58.2008C22.1508 58.5525 22.6277 58.75 23.125 58.75H56.875C57.3723 58.75 57.8492 58.5525 58.2008 58.2008C58.5525 57.8492 58.75 57.3723 58.75 56.875C58.75 56.3777 58.5525 55.9008 58.2008 55.5492C57.8492 55.1975 57.3723 55 56.875 55ZM25 23.125C25 22.9592 25.0658 22.8003 25.1831 22.6831C25.3003 22.5658 25.4592 22.5 25.625 22.5H54.375C54.5408 22.5 54.6997 22.5658 54.8169 22.6831C54.9342 22.8003 55 22.9592 55 23.125V45H52.5V41.875C52.4986 40.9977 52.2337 40.141 51.7397 39.416C51.2457 38.691 50.5454 38.131 49.7294 37.8088C50.1217 37.4144 50.3998 36.9211 50.5341 36.3813C50.6684 35.8414 50.6538 35.2753 50.4919 34.7431C50.5754 34.6383 50.6222 34.509 50.625 34.375V33.125C50.625 32.6277 50.4275 32.1508 50.0758 31.7992C49.7242 31.4475 49.2473 31.25 48.75 31.25H46.25C45.7527 31.25 45.2758 31.4475 44.9242 31.7992C44.5725 32.1508 44.375 32.6277 44.375 33.125V34.375C44.3778 34.509 44.4246 34.6383 44.5081 34.7431C44.3462 35.2753 44.3316 35.8414 44.4659 36.3813C44.6002 36.9211 44.8783 37.4144 45.2706 37.8088C44.4546 38.131 43.7543 38.691 43.2603 39.416C42.7663 40.141 42.5014 40.9977 42.5 41.875V45H40.625V38.125H39.375V45H37.5V41.875C37.4986 40.9977 37.2337 40.141 36.7397 39.416C36.2457 38.691 35.5454 38.131 34.7294 37.8088C35.1217 37.4144 35.3998 36.9211 35.5341 36.3813C35.6684 35.8414 35.6538 35.2753 35.4919 34.7431C35.5754 34.6383 35.6222 34.509 35.625 34.375V33.125C35.625 32.6277 35.4275 32.1508 35.0758 31.7992C34.7242 31.4475 34.2473 31.25 33.75 31.25H31.25C30.7527 31.25 30.2758 31.4475 29.9242 31.7992C29.5725 32.1508 29.375 32.6277 29.375 33.125V34.375C29.3778 34.509 29.4246 34.6383 29.5081 34.7431C29.3462 35.2753 29.3316 35.8414 29.4659 36.3813C29.6002 36.9211 29.8783 37.4144 30.2706 37.8088C29.4546 38.131 28.7543 38.691 28.2603 39.416C27.7663 40.141 27.5014 40.9977 27.5 41.875V45H25V23.125ZM49.375 33.75H45.625V33.125C45.625 32.9592 45.6908 32.8003 45.8081 32.6831C45.9253 32.5658 46.0842 32.5 46.25 32.5H48.75C48.9158 32.5 49.0747 32.5658 49.1919 32.6831C49.3092 32.8003 49.375 32.9592 49.375 33.125V33.75ZM45.75 35H49.25C49.3279 35.1994 49.3702 35.411 49.375 35.625C49.375 36.1223 49.1775 36.5992 48.8258 36.9508C48.4742 37.3025 47.9973 37.5 47.5 37.5C47.0027 37.5 46.5258 37.3025 46.1742 36.9508C45.8225 36.5992 45.625 36.1223 45.625 35.625C45.6298 35.411 45.6721 35.1994 45.75 35ZM46.875 38.75V43.125H48.125V38.75C48.9535 38.751 49.7478 39.0806 50.3336 39.6664C50.9194 40.2522 51.249 41.0465 51.25 41.875V45H43.75V41.875C43.751 41.0465 44.0806 40.2522 44.6664 39.6664C45.2522 39.0806 46.0465 38.751 46.875 38.75ZM34.375 33.75H30.625V33.125C30.625 32.9592 30.6908 32.8003 30.8081 32.6831C30.9253 32.5658 31.0842 32.5 31.25 32.5H33.75C33.9158 32.5 34.0747 32.5658 34.1919 32.6831C34.3092 32.8003 34.375 32.9592 34.375 33.125V33.75ZM30.75 35H34.25C34.3279 35.1994 34.3702 35.411 34.375 35.625C34.375 36.1223 34.1775 36.5992 33.8258 36.9508C33.4742 37.3025 32.9973 37.5 32.5 37.5C32.0027 37.5 31.5258 37.3025 31.1742 36.9508C30.8225 36.5992 30.625 36.1223 30.625 35.625C30.6298 35.411 30.6721 35.1994 30.75 35ZM31.875 38.75V43.125H33.125V38.75C33.9535 38.751 34.7478 39.0806 35.3336 39.6664C35.9194 40.2522 36.249 41.0465 36.25 41.875V45H28.75V41.875C28.751 41.0465 29.0806 40.2522 29.6664 39.6664C30.2522 39.0806 31.0465 38.751 31.875 38.75ZM22.5 46.875C22.5 46.7092 22.5658 46.5503 22.6831 46.4331C22.8003 46.3158 22.9592 46.25 23.125 46.25H56.875C57.0408 46.25 57.1997 46.3158 57.3169 46.4331C57.4342 46.5503 57.5 46.7092 57.5 46.875C57.5 47.0408 57.4342 47.1997 57.3169 47.3169C57.1997 47.4342 57.0408 47.5 56.875 47.5H23.125C22.9592 47.5 22.8003 47.4342 22.6831 47.3169C22.5658 47.1997 22.5 47.0408 22.5 46.875ZM25 48.75H55V55H25V48.75ZM56.875 57.5H23.125C22.9592 57.5 22.8003 57.4342 22.6831 57.3169C22.5658 57.1997 22.5 57.0408 22.5 56.875C22.5 56.7092 22.5658 56.5503 22.6831 56.4331C22.8003 56.3158 22.9592 56.25 23.125 56.25H56.875C57.0408 56.25 57.1997 56.3158 57.3169 56.4331C57.4342 56.5503 57.5 56.7092 57.5 56.875C57.5 57.0408 57.4342 57.1997 57.3169 57.3169C57.1997 57.4342 57.0408 57.5 56.875 57.5Z" fill="#A97DFF"/>
<path d="M53.125 30C53.2908 30 53.4497 29.9342 53.5669 29.8169C53.6842 29.6997 53.75 29.5408 53.75 29.375V24.375C53.75 24.2092 53.6842 24.0503 53.5669 23.9331C53.4497 23.8158 53.2908 23.75 53.125 23.75H26.875C26.7092 23.75 26.5503 23.8158 26.4331 23.9331C26.3158 24.0503 26.25 24.2092 26.25 24.375V29.375C26.25 29.5408 26.3158 29.6997 26.4331 29.8169C26.5503 29.9342 26.7092 30 26.875 30H53.125ZM27.5 25H52.5V28.75H27.5V25Z" fill="#A97DFF"/>
</svg>
