<svg width="80" height="80" viewBox="0 0 80 80" fill="none" xmlns="http://www.w3.org/2000/svg">
<path d="M80 40C80 62.0914 62.0914 80 40 80C17.9086 80 0 62.0914 0 40C0 17.9086 17.9086 0 40 0C62.0914 0 80 17.9086 80 40Z" fill="#D9E8FF"/>
<path d="M54.9397 25.3012H51.5662V21.9277C51.5663 20.8674 50.6987 20 49.6389 20H25.0602C24 20 23.1326 20.8674 23.1326 21.9277V52.771C23.1326 53.8313 24 54.6988 25.0603 54.6988H28.4338V58.0723C28.4338 59.1325 29.3008 60 30.3615 60H46.7466C47.8064 60 49.3061 59.4053 50.0777 58.6791L55.4627 53.6102C56.2352 52.8839 56.8666 51.4217 56.8666 50.3615L56.8675 27.229C56.8674 26.1687 55.9999 25.3012 54.9397 25.3012ZM28.4337 27.229V53.253H25.0602C24.799 53.253 24.5783 53.0323 24.5783 52.7711V21.9277C24.5783 21.6666 24.799 21.4459 25.0602 21.4459H49.639C49.8997 21.4459 50.1209 21.6666 50.1209 21.9277V25.3012H30.3614C29.3007 25.3012 28.4337 26.1687 28.4337 27.229ZM54.4718 52.5575L49.0867 57.626C48.9764 57.7297 48.8328 57.8313 48.6742 57.9281V53.4939C48.6742 53.1628 48.8077 52.8649 49.0279 52.6433C49.2501 52.4231 49.5479 52.2892 49.879 52.2892H54.7007C54.6259 52.3907 54.5494 52.4842 54.4718 52.5575ZM55.4206 50.3613C55.4206 50.5045 55.3945 50.6703 55.3551 50.8432H49.8789C48.4163 50.8461 47.2313 52.0312 47.2283 53.4938V58.4957C47.0563 58.5305 46.8905 58.554 46.7464 58.554H30.3614V58.5541C30.0997 58.5541 29.8795 58.3334 29.8795 58.0722V27.2289C29.8795 26.9677 30.0997 26.747 30.3614 26.747H54.9396C55.2008 26.747 55.4215 26.9677 55.4215 27.2289L55.4206 50.3613Z" fill="#4F95FF"/>
<path d="M49.6389 32.0481H35.6631C35.2635 32.0481 34.9402 32.3715 34.9402 32.771C34.9402 33.1705 35.2636 33.4939 35.6631 33.4939H49.6389C50.038 33.4939 50.3618 33.1705 50.3618 32.771C50.3618 32.3715 50.038 32.0481 49.6389 32.0481Z" fill="#4F95FF"/>
<path d="M49.6389 41.6867H35.6631C35.2635 41.6867 34.9402 42.0101 34.9402 42.4096C34.9402 42.8091 35.2636 43.1325 35.6631 43.1325H49.6389C50.038 43.1325 50.3618 42.8091 50.3618 42.4096C50.3618 42.01 50.038 41.6867 49.6389 41.6867Z" fill="#4F95FF"/>
<path d="M43.374 46.506H35.6632C35.2637 46.506 34.9403 46.8293 34.9403 47.2289C34.9403 47.6284 35.2637 47.9518 35.6632 47.9518H43.374C43.773 47.9518 44.0964 47.6284 44.0964 47.2289C44.0964 46.8293 43.773 46.506 43.374 46.506Z" fill="#4F95FF"/>
<path d="M49.6389 36.8674H35.6631C35.2635 36.8674 34.9402 37.1907 34.9402 37.5903C34.9402 37.9898 35.2636 38.3131 35.6631 38.3131H49.6389C50.038 38.3131 50.3618 37.9898 50.3618 37.5903C50.3618 37.1907 50.038 36.8674 49.6389 36.8674Z" fill="#4F95FF"/>
</svg>
