<svg width="80" height="80" viewBox="0 0 80 80" fill="none" xmlns="http://www.w3.org/2000/svg">
<path d="M80 40C80 62.0914 62.0914 80 40 80C17.9086 80 0 62.0914 0 40C0 17.9086 17.9086 0 40 0C62.0914 0 80 17.9086 80 40Z" fill="#E3FFE5"/>
<path d="M41.3267 46.3314H51.99C52.3899 46.3314 52.6564 46.0648 52.6564 45.6649V39.6668C52.6564 39.2669 52.3899 39.0004 51.99 39.0004H41.3267C40.9268 39.0004 40.6603 39.2669 40.6603 39.6668V45.6649C40.6602 46.0647 40.9268 46.3314 41.3267 46.3314ZM41.9931 40.3332H51.3236V44.9984H41.9931V40.3332Z" fill="#2FCF37"/>
<path d="M23.3323 37.6673H28.664C29.0639 37.6673 29.3304 37.4008 29.3304 37.0009C29.3304 36.601 29.0639 36.3345 28.664 36.3345H23.3323C22.9324 36.3345 22.6659 36.601 22.6659 37.0009C22.6659 37.4008 22.9324 37.6673 23.3323 37.6673Z" fill="#2FCF37"/>
<path d="M31.3298 37.6673H36.6615C37.0614 37.6673 37.328 37.4008 37.328 37.0009C37.328 36.601 37.0614 36.3345 36.6615 36.3345H31.3298C30.9299 36.3345 30.6634 36.601 30.6634 37.0009C30.6634 37.4008 30.9299 37.6673 31.3298 37.6673Z" fill="#2FCF37"/>
<path d="M23.3323 40.3332H31.9962C32.3961 40.3332 32.6627 40.0667 32.6627 39.6668C32.6627 39.2669 32.3961 39.0004 31.9962 39.0004H23.3323C22.9324 39.0004 22.6659 39.2669 22.6659 39.6668C22.6659 40.0667 22.9324 40.3332 23.3323 40.3332Z" fill="#2FCF37"/>
<path d="M36.6614 39.0003H34.6621C34.2622 39.0003 33.9956 39.2669 33.9956 39.6667C33.9956 40.0666 34.2622 40.3332 34.6621 40.3332H36.6614C37.0613 40.3332 37.3279 40.0666 37.3279 39.6667C37.3279 39.2669 37.0613 39.0003 36.6614 39.0003Z" fill="#2FCF37"/>
<path d="M59.3877 30.7362C58.9212 30.1364 58.3214 29.8032 57.5883 29.7366L55.9888 29.5427V27.6705V26.3376C55.9888 24.8714 54.7891 23.6718 53.3229 23.6718H22.6658C21.1996 23.6717 20 24.8714 20 26.3376V27.6706V33.0023V47.6643C20 48.8681 20.8089 49.8916 21.9098 50.2196C21.8762 51.5678 22.8963 52.7382 24.2654 52.8627L55.0558 56.3283C55.1224 56.3283 55.2557 56.3283 55.3223 56.3283C56.6553 56.3283 57.8549 55.3286 57.9881 54.0623L59.9875 32.669C60.0541 32.0025 59.8542 31.2694 59.3877 30.7362ZM21.3329 28.337H54.6559V30.0698V32.3357H21.3329V28.337ZM22.6658 25.0047H53.3229C54.056 25.0047 54.6558 25.6045 54.6558 26.3376V27.0041H21.3329V26.3376C21.3329 25.6045 21.9328 25.0047 22.6658 25.0047ZM21.3329 47.6642V33.6686H54.6559V47.6642C54.6559 48.3974 54.0561 48.9972 53.3229 48.9972H22.7325H22.6659C21.9328 48.9972 21.3329 48.3974 21.3329 47.6642ZM58.6546 32.4024L56.6552 53.7957C56.5886 54.5288 55.9221 55.0619 55.189 54.9953L24.4652 51.5298C23.7988 51.4631 23.3322 50.9299 23.2656 50.3301H53.3229C54.7891 50.3301 55.9887 49.1305 55.9887 47.6643V33.0022V30.8029L57.5216 30.9362C57.8548 30.9362 58.188 31.1361 58.3879 31.4027C58.5879 31.6692 58.7213 32.0691 58.6546 32.4024Z" fill="#2FCF37"/>
</svg>
