<svg width="80" height="80" viewBox="0 0 80 80" fill="none" xmlns="http://www.w3.org/2000/svg">
<path d="M80 40C80 62.0914 62.0914 80 40 80C17.9086 80 0 62.0914 0 40C0 17.9086 17.9086 0 40 0C62.0914 0 80 17.9086 80 40Z" fill="#FFE3E3"/>
<g clip-path="url(#clip0_105_169)">
<path fill-rule="evenodd" clip-rule="evenodd" d="M59.9943 25.5337C59.9943 22.4824 57.512 20 54.4607 20C51.8098 20 49.5894 21.874 49.052 24.3666H41.3766C40.3334 24.3666 39.3527 24.7727 38.6148 25.5104L21.15 42.971C20.4122 43.7087 20.0057 44.6897 20.0057 45.7331C20.0056 46.7766 20.4119 47.7575 21.1498 48.4954L31.5102 58.8558C32.248 59.5935 33.2289 59.9999 34.2722 59.9999C35.3156 59.9999 36.2965 59.5936 37.0342 58.8558L43.0765 52.8135L48.0482 47.842L54.4996 41.3906C55.2374 40.6528 55.6437 39.6719 55.6437 38.6286V30.9398C58.163 30.3958 59.9943 28.1728 59.9943 25.5337ZM35.9294 57.7509L41.9717 51.7087L46.9434 46.7371L53.3948 40.2857C53.8375 39.8431 54.0812 39.2545 54.0812 38.6285V28.2726C54.0812 26.9803 53.0299 25.9289 51.7376 25.9289H50.5089C50.5983 26.8403 50.9965 27.6856 51.6526 28.3417C51.9576 28.6469 51.9576 29.1415 51.6525 29.4465C51.3474 29.7516 50.8528 29.7516 50.5477 29.4465C49.5964 28.4952 49.0358 27.258 48.9425 25.929H41.3766C40.7507 25.929 40.1622 26.1728 39.7195 26.6153L22.2547 44.076C21.8119 44.5186 21.5681 45.1071 21.5681 45.7332C21.568 46.3593 21.8118 46.9479 22.2545 47.3906L32.615 57.7509C33.5287 58.6647 35.0156 58.6647 35.9294 57.7509ZM55.6437 28.2726V29.3265C57.2772 28.8227 58.4319 27.3095 58.4319 25.5337C58.4319 23.3439 56.6504 21.5624 54.4607 21.5624C52.6771 21.5624 51.1645 22.7446 50.6648 24.3665H51.7376C53.8914 24.3665 55.6437 26.1188 55.6437 28.2726Z" fill="#FF3131"/>
<path d="M30.7793 45.6908C31.0844 45.3857 31.0844 44.8911 30.7793 44.5859C30.4742 44.2809 29.9796 44.2809 29.6744 44.5859L27.7938 46.4666C27.4887 46.7716 27.4887 47.2663 27.7938 47.5714L32.4339 52.2117C32.5865 52.3642 32.7864 52.4405 32.9863 52.4405C33.1863 52.4405 33.3862 52.3642 33.5387 52.2117C33.8438 51.9066 33.8438 51.4119 33.5387 51.1068L31.7271 49.2951L32.906 48.1163C33.211 47.8112 33.211 47.3165 32.906 47.0114C32.6008 46.7064 32.1063 46.7064 31.8011 47.0114L30.6222 48.1902L29.4508 47.0189L30.7793 45.6908Z" fill="#FF3131"/>
<path d="M40.0009 45.4269C40.4097 45.4269 40.7535 45.1091 40.7798 44.6954C40.8073 44.2648 40.4805 43.8935 40.0499 43.8661L37.4673 43.7014C37.6844 43.3282 37.8075 42.9059 37.8212 42.4668C37.8427 41.7758 37.5931 41.1338 37.1183 40.659C36.1488 39.6895 34.5407 39.72 33.5333 40.7272L32.3002 41.9603C32.3 41.9605 32.2997 41.9608 32.2995 41.9611C32.2993 41.9613 32.299 41.9615 32.2987 41.9618C31.9936 42.2668 31.9936 42.7615 32.2987 43.0666L36.9389 47.7068C37.0915 47.8593 37.2914 47.9356 37.4913 47.9356C37.6913 47.9356 37.8912 47.8593 38.0437 47.7068C38.3488 47.4017 38.3488 46.9071 38.0437 46.6019L36.657 45.2152L39.9503 45.4252C39.9674 45.4263 39.9843 45.4269 40.0009 45.4269ZM34.6382 41.832C35.0295 41.4408 35.6592 41.4095 36.0135 41.7638C36.1801 41.9304 36.2675 42.1627 36.2595 42.418C36.2512 42.6849 36.1366 42.9476 35.9452 43.139C35.7886 43.2956 35.5188 43.5677 35.2724 43.8165C35.029 43.5757 34.7649 43.3137 34.6142 43.1631C34.4853 43.0343 34.2129 42.7634 33.9592 42.511L34.6382 41.832Z" fill="#FF3131"/>
<path d="M47.6094 38.1412L49.5646 36.186C49.8697 35.881 49.8697 35.3863 49.5646 35.0812C49.2594 34.7762 48.7649 34.7762 48.4597 35.0812L47.0569 36.4839L45.8417 35.2687L47.1002 34.01C47.4053 33.705 47.4053 33.2103 47.1002 32.9051C46.7951 32.6002 46.3006 32.6002 45.9953 32.9051L44.7368 34.1638L43.5214 32.9484L44.9243 31.5457C45.2294 31.2406 45.2294 30.7459 44.9243 30.4408C44.6191 30.1358 44.1246 30.1358 43.8194 30.4408L41.8642 32.3959C41.5592 32.701 41.5592 33.1957 41.8642 33.5008L44.184 35.8206L44.1844 35.821C44.1844 35.821 44.1846 35.8212 44.1848 35.8214L46.5045 38.1411C46.651 38.2876 46.8497 38.37 47.0569 38.37C47.264 38.37 47.4629 38.2877 47.6094 38.1412Z" fill="#FF3131"/>
<path d="M42.5262 42.9009C42.7333 42.9009 42.932 42.8186 43.0786 42.6721L45.0337 40.7169C45.3388 40.4118 45.3388 39.9172 45.0337 39.612C44.7286 39.307 44.2341 39.307 43.9289 39.612L42.5261 41.0148L41.3108 39.7995L42.5695 38.5409C42.8746 38.2358 42.8746 37.7412 42.5695 37.436C42.2645 37.1312 41.7699 37.131 41.4646 37.436L40.206 38.6946L38.9907 37.4794L40.3936 36.0766C40.6987 35.7715 40.6987 35.2769 40.3936 34.9717C40.0884 34.6667 39.5939 34.6667 39.2887 34.9717L37.3335 36.9269C37.0285 37.232 37.0285 37.7266 37.3335 38.0318L41.9737 42.672C42.1202 42.8186 42.3189 42.9009 42.5262 42.9009Z" fill="#FF3131"/>
</g>
<defs>
<clipPath id="clip0_105_169">
<rect width="40" height="40" fill="white" transform="translate(20 20)"/>
</clipPath>
</defs>
</svg>
