<svg width="80" height="80" viewBox="0 0 80 80" fill="none" xmlns="http://www.w3.org/2000/svg">
<path d="M80 40C80 62.0914 62.0914 80 40 80C17.9086 80 0 62.0914 0 40C0 17.9086 17.9086 0 40 0C62.0914 0 80 17.9086 80 40Z" fill="#FFF1E0"/>
<path d="M51.6477 25.2408H48.0492V23.6219C48.0492 23.0981 47.4811 22.86 46.9603 22.86H44.1667C43.5039 20.9554 41.8467 20.0031 39.9527 20.0031C38.0796 19.9323 36.3759 21.0873 35.7387 22.86H32.9925C32.4717 22.86 31.9508 23.0981 31.9508 23.6219V25.2408H28.3523C26.2198 25.2636 24.4752 26.9554 24.375 29.0976V56.3812C24.375 58.4763 26.2689 60 28.3523 60H51.6477C53.7311 60 55.625 58.4763 55.625 56.3812V29.0977C55.5248 26.9554 53.7802 25.2636 51.6477 25.2408ZM33.8447 24.7646H36.4489C36.9035 24.7089 37.2686 24.3611 37.3485 23.9076C37.6289 22.6796 38.7003 21.7981 39.9527 21.7649C41.1936 21.8027 42.2488 22.6869 42.5095 23.9076C42.5944 24.3768 42.9837 24.729 43.4565 24.7646H46.1554V28.5739H33.8447V24.7646ZM53.7311 56.3813C53.7311 57.4289 52.6894 58.0955 51.6477 58.0955H28.3523C27.3106 58.0955 26.2689 57.4289 26.2689 56.3813V29.0977C26.3655 28.0073 27.2639 27.1654 28.3523 27.1455H31.9508V29.5739C32.0008 30.1074 32.4603 30.5065 32.9924 30.4786H46.9602C47.5021 30.5084 47.976 30.1148 48.0492 29.5739V27.1454H51.6476C52.736 27.1654 53.6344 28.0072 53.731 29.0976V56.3813H53.7311Z" fill="#FFA63D"/>
<path d="M36.3542 41.2872C35.999 40.9108 35.4094 40.8895 35.0284 41.2397L31.998 44.1442L30.7196 42.8109C30.3645 42.4344 29.7749 42.4133 29.3939 42.7633C29.0271 43.1498 29.0271 43.7578 29.3939 44.1442L31.3351 46.144C31.5031 46.3333 31.7458 46.4379 31.998 46.4298C32.2477 46.4262 32.486 46.3235 32.6608 46.144L36.354 42.6205C36.7201 42.2828 36.7446 41.7104 36.4086 41.3423C36.3914 41.3231 36.3732 41.3047 36.3542 41.2872Z" fill="#FFA63D"/>
<path d="M49.9432 43.3346H39.053C38.53 43.3346 38.1061 43.7609 38.1061 44.2869C38.1061 44.8129 38.53 45.2392 39.053 45.2392H49.9432C50.4662 45.2392 50.8901 44.8129 50.8901 44.2869C50.8901 43.7609 50.4662 43.3346 49.9432 43.3346Z" fill="#FFA63D"/>
<path d="M36.3542 33.6687C35.999 33.2922 35.4094 33.271 35.0284 33.6211L31.998 36.5257L30.7196 35.1924C30.3645 34.8159 29.7749 34.7947 29.3939 35.1448C29.0271 35.5312 29.0271 36.1392 29.3939 36.5257L31.3351 38.5255C31.5031 38.7147 31.7458 38.8193 31.998 38.8112C32.2477 38.8077 32.486 38.705 32.6608 38.5255L36.354 35.002C36.7201 34.6642 36.7446 34.0919 36.4086 33.7238C36.3914 33.7045 36.3732 33.6862 36.3542 33.6687Z" fill="#FFA63D"/>
<path d="M49.9432 35.7162H39.053C38.53 35.7162 38.1061 36.1425 38.1061 36.6685C38.1061 37.1945 38.53 37.6208 39.053 37.6208H49.9432C50.4662 37.6208 50.8901 37.1945 50.8901 36.6685C50.8901 36.1425 50.4662 35.7162 49.9432 35.7162Z" fill="#FFA63D"/>
<path d="M36.3542 48.9056C35.999 48.5291 35.4094 48.508 35.0284 48.858L31.998 51.7626L30.7196 50.4293C30.3645 50.0528 29.7749 50.0316 29.3939 50.3817C29.0271 50.7681 29.0271 51.3761 29.3939 51.7626L31.3351 53.7624C31.5031 53.9516 31.7458 54.0563 31.998 54.0481C32.2477 54.0446 32.486 53.9419 32.6608 53.7624L36.354 50.2389C36.7201 49.9011 36.7446 49.3288 36.4086 48.9607C36.3914 48.9415 36.3732 48.9232 36.3542 48.9056Z" fill="#FFA63D"/>
<path d="M49.9432 50.9532H39.053C38.53 50.9532 38.1061 51.3796 38.1061 51.9056C38.1061 52.4315 38.53 52.8579 39.053 52.8579H49.9432C50.4662 52.8579 50.8901 52.4315 50.8901 51.9056C50.8901 51.3796 50.4662 50.9532 49.9432 50.9532Z" fill="#FFA63D"/>
</svg>
