<svg width="80" height="80" viewBox="0 0 80 80" fill="none" xmlns="http://www.w3.org/2000/svg">
<path d="M80 40C80 62.0914 62.0914 80 40 80C17.9086 80 0 62.0914 0 40C0 17.9086 17.9086 0 40 0C62.0914 0 80 17.9086 80 40Z" fill="#FFF1E0"/>
<g clip-path="url(#clip0_105_24)">
<path fill-rule="evenodd" clip-rule="evenodd" d="M59.9943 25.5337C59.9943 22.4824 57.512 20 54.4607 20C51.8098 20 49.5894 21.874 49.052 24.3666H41.3766C40.3334 24.3666 39.3527 24.7727 38.6148 25.5104L21.15 42.971C20.4122 43.7087 20.0057 44.6897 20.0057 45.7331C20.0056 46.7766 20.4119 47.7575 21.1498 48.4954L31.5102 58.8558C32.248 59.5935 33.2289 59.9999 34.2722 59.9999C35.3156 59.9999 36.2965 59.5936 37.0342 58.8558L43.0765 52.8135L48.0482 47.842L54.4996 41.3906C55.2374 40.6528 55.6437 39.6719 55.6437 38.6286V30.9398C58.163 30.3958 59.9943 28.1728 59.9943 25.5337ZM35.9294 57.7509L41.9717 51.7087L46.9434 46.7371L53.3948 40.2857C53.8375 39.8431 54.0812 39.2545 54.0812 38.6285V28.2726C54.0812 26.9803 53.0299 25.9289 51.7376 25.9289H50.5089C50.5983 26.8403 50.9965 27.6856 51.6526 28.3417C51.9576 28.6469 51.9576 29.1415 51.6525 29.4465C51.3474 29.7516 50.8528 29.7516 50.5477 29.4465C49.5964 28.4952 49.0358 27.258 48.9425 25.929H41.3766C40.7507 25.929 40.1622 26.1728 39.7195 26.6153L22.2547 44.076C21.8119 44.5186 21.5681 45.1071 21.5681 45.7332C21.568 46.3593 21.8118 46.9479 22.2545 47.3906L32.615 57.7509C33.5287 58.6647 35.0156 58.6647 35.9294 57.7509ZM55.6437 28.2726V29.3265C57.2772 28.8227 58.4319 27.3095 58.4319 25.5337C58.4319 23.3439 56.6504 21.5624 54.4607 21.5624C52.6771 21.5624 51.1645 22.7446 50.6648 24.3665H51.7376C53.8914 24.3665 55.6437 26.1188 55.6437 28.2726Z" fill="#E2B100"/>
<path d="M40.0971 33.4768L41.2076 34.5715L35.8873 39.9681C35.1176 40.7488 33.9098 42.6871 35.2363 44.1947C36.8945 46.0791 38.3474 46.2008 39.1898 45.2525C40.0322 44.3041 40.0314 43.648 39.2012 41.7997C38.3711 39.9514 38.2131 38.4849 39.5237 37.1868C40.8343 35.8887 44.1457 35.6269 46.0411 39.9298L44.7766 40.5555C44.4368 39.4611 43.2699 37.3849 41.3209 37.8352C40.7224 38.119 39.7288 38.887 40.387 40.5657L41.1235 42.4465C41.3428 42.9956 41.6538 44.3487 41.1426 45.3677C40.5037 46.6414 38.9737 47.3175 38.2394 47.2802C37.7552 47.3021 36.5771 47.1643 35.739 46.4378C35.2646 46.0638 34.1783 45.1177 33.6275 44.3249C32.9389 43.3341 32.9843 42.068 33.2488 41.2678C33.5134 40.4676 33.7316 40.0274 34.7612 38.8579C35.5849 37.9223 38.6617 34.8807 40.0971 33.4768Z" fill="#E2B100"/>
</g>
<defs>
<clipPath id="clip0_105_24">
<rect width="40" height="40" fill="white" transform="translate(20 20)"/>
</clipPath>
</defs>
</svg>
