<svg width="80" height="80" viewBox="0 0 80 80" fill="none" xmlns="http://www.w3.org/2000/svg">
<path d="M80 40C80 62.0914 62.0914 80 40 80C17.9086 80 0 62.0914 0 40C0 17.9086 17.9086 0 40 0C62.0914 0 80 17.9086 80 40Z" fill="white"/>
<path fill-rule="evenodd" clip-rule="evenodd" d="M16.3648 30.3066H22.7527C24.8307 30.3089 26.8875 30.7376 28.8027 31.567C30.725 32.4012 32.4715 33.6108 33.9457 35.1295C35.4176 36.6599 36.5842 38.4716 37.38 40.4627C37.4354 40.6001 37.4887 40.739 37.5401 40.8776C37.5672 40.7819 37.5955 40.6845 37.6246 40.5857C37.7471 40.169 37.8538 39.8294 37.9448 39.5662C38.0614 39.229 38.178 38.9058 38.3005 38.6058C38.4949 38.1231 38.7073 37.6457 38.937 37.1732C38.8788 37.0664 38.8097 36.9488 38.7368 36.8258C38.5478 36.4994 38.3811 36.2258 38.237 36.0002C38.062 35.7332 37.887 35.4689 37.7026 35.2121C37.5184 34.9553 37.3289 34.7004 37.1381 34.4574C36.9192 34.1774 36.7162 33.9304 36.5295 33.7156L36.5261 33.7203C36.3468 33.5123 36.1483 33.2957 35.9305 33.0705L35.6389 32.7705C35.5643 32.6991 35.4447 32.5836 35.282 32.4324C35.0954 32.2572 34.9779 32.1488 34.9237 32.0996L34.5837 31.8102C34.4413 31.6902 34.3398 31.6056 34.2809 31.557V31.55L33.8884 31.2535L33.5261 30.9875L33.1115 30.6875L32.995 30.6054L31.4783 29.6633L31.1282 29.4752C31.0005 29.4086 30.8617 29.3381 30.7141 29.2649C30.5199 29.1695 30.3759 29.0988 30.2878 29.058C30.2172 29.025 30.0825 28.9662 29.8847 28.881L29.4835 28.7088L29.0551 28.5506C28.9349 28.5068 28.8038 28.4597 28.6609 28.4123L28.1517 28.2429L27.2254 27.9705L26.715 27.8439C26.5844 27.8127 26.4758 27.7875 26.3901 27.7689C26.2046 27.7317 26.0722 27.7047 26.001 27.6939C25.8674 27.6705 25.7094 27.6442 25.5274 27.6166C25.4352 27.6028 25.2942 27.5838 25.0953 27.5592L24.5829 27.4994L24.0902 27.4584L23.6316 27.4238C23.3948 27.4112 23.2291 27.4011 23.1329 27.3969H15.0641L14.1891 25.4545H22.7595C23.0109 25.4545 23.3336 25.4669 23.7256 25.4885C24.0511 25.5059 24.3974 25.5356 24.7644 25.5734C25.1575 25.6134 25.4991 25.6554 25.7888 25.6994C26.1627 25.7552 26.484 25.8118 26.7546 25.8676C26.9641 25.9102 27.2757 25.9874 27.6851 26.0984H27.6919C27.9929 26.1776 28.3274 26.2785 28.6925 26.3937C29.0938 26.5197 29.4222 26.6336 29.6766 26.7242C30.0005 26.8442 30.309 26.9675 30.6022 27.0939C30.8954 27.2204 31.1986 27.3599 31.5116 27.5135C31.8227 27.6683 32.1258 27.8288 32.4213 27.9939L34.0291 28.9947L34.1456 29.0768C34.468 29.2995 34.7518 29.5046 34.9972 29.6914C35.3036 29.9242 35.5624 30.1296 35.7736 30.3084C36.0209 30.5184 36.2759 30.7485 36.5378 30.9933C36.8131 31.2489 37.0541 31.4858 37.2618 31.7024C37.7309 32.1915 38.1752 32.7052 38.5933 33.241C39.0129 33.7742 39.4133 34.3363 39.7944 34.9279C39.8661 35.0383 39.9354 35.1497 40.0048 35.2613C40.0725 35.1497 40.1433 35.0383 40.215 34.9279C40.5949 34.3379 40.9953 33.7758 41.4161 33.241C41.834 32.7052 42.2781 32.1915 42.747 31.7024C42.9541 31.4864 43.1969 31.2489 43.471 30.9933C43.733 30.7491 43.9885 30.5184 44.2358 30.3084C44.4469 30.1296 44.7053 29.9242 45.0113 29.6914C45.2575 29.5046 45.5411 29.2995 45.8624 29.0768L45.9791 28.9947L47.5861 27.9939C47.8812 27.8303 48.1847 27.6699 48.4966 27.5135C48.8057 27.3605 49.1103 27.2211 49.4061 27.0939C49.7017 26.9667 50.0074 26.8442 50.3317 26.7242C50.5854 26.6318 50.915 26.5197 51.3157 26.3937C51.6809 26.2773 52.0159 26.1776 52.3157 26.0984H52.3225C52.7309 25.9886 53.0431 25.9108 53.2524 25.8676C53.5237 25.8112 53.845 25.7552 54.2183 25.6994C54.5076 25.6562 54.849 25.6142 55.2425 25.5734C55.6088 25.5362 55.956 25.5065 56.2815 25.4885C56.674 25.4669 56.9959 25.4545 57.2467 25.4545H65.818L64.943 27.3969H56.8742C56.7768 27.4011 56.6117 27.4106 56.3749 27.4238L55.9169 27.4584L55.4233 27.4994L54.9112 27.5592C54.7158 27.5838 54.5719 27.6022 54.4797 27.6166C54.2972 27.6442 54.1391 27.6705 54.0055 27.6939C53.9349 27.7047 53.8025 27.7317 53.6164 27.7689C53.5313 27.7875 53.4221 27.8127 53.292 27.8439L52.7817 27.9705L51.8549 28.2429L51.3451 28.4123C51.2027 28.4597 51.0708 28.5068 50.9506 28.5506L50.5231 28.7088L50.1212 28.881C49.9236 28.9659 49.7895 29.0248 49.7188 29.058C49.6307 29.0982 49.4854 29.1695 49.2929 29.2649C49.1448 29.3375 49.0066 29.408 48.8788 29.4752L48.5248 29.6633L47.0081 30.6054L46.8914 30.6875L46.4767 30.9875L46.1138 31.2535L45.7214 31.55V31.557C45.663 31.6056 45.5615 31.6884 45.4186 31.8102L45.0785 32.0996C45.0243 32.1488 44.9075 32.2572 44.7197 32.4324C44.5569 32.5842 44.4375 32.6991 44.3628 32.7705L44.0711 33.0705C43.8534 33.2957 43.6549 33.5123 43.4756 33.7203L43.4722 33.7156C43.2859 33.9312 43.0833 34.1782 42.8644 34.4574C42.6723 34.7006 42.4839 34.9521 42.2996 35.2121C42.1164 35.4695 41.9379 35.7332 41.7653 36.0002C41.6212 36.2234 41.4544 36.4994 41.2654 36.8258C41.1931 36.9488 41.1262 37.0658 41.0661 37.1732C41.2967 37.6448 41.5087 38.1222 41.7023 38.6058C41.8237 38.9058 41.9426 39.2296 42.0575 39.5662C42.1485 39.8294 42.2554 40.169 42.3779 40.5857C42.4077 40.6847 42.4363 40.7822 42.4625 40.8776C42.5144 40.739 42.5669 40.5995 42.6223 40.4627C43.4183 38.4715 44.5853 36.6599 46.0574 35.1295C47.5313 33.6105 49.2779 32.4008 51.2004 31.567C53.1152 30.7377 55.1717 30.309 57.2493 30.3066H63.6374L62.7625 32.2502H57.2467C55.4153 32.2503 53.6023 32.6265 51.9141 33.357C50.2161 34.089 48.6748 35.1576 47.3779 36.5018C44.7617 39.2209 43.2895 42.8891 43.2785 46.7147V67.3982H41.4061V46.3537C41.4061 46.2505 41.395 46.0782 41.3828 45.8352L41.3489 45.3611L41.3082 44.849L41.2498 44.3205C41.2264 44.1165 41.2088 43.9659 41.1948 43.8711C41.1686 43.6809 41.1435 43.5175 41.1213 43.3801C41.105 43.2751 41.0799 43.1402 41.0484 42.9746C41.0286 42.8732 41.0035 42.7545 40.9726 42.6189L40.8561 42.1022L40.5924 41.1477L40.4284 40.6203C40.3817 40.4721 40.3374 40.3343 40.2942 40.2107L40.141 39.7613L40.0042 39.4203L39.8679 39.7613L39.7132 40.2107C39.6706 40.3343 39.6251 40.4721 39.579 40.6203L39.4147 41.1477L39.1521 42.1022L39.0356 42.6189C39.0041 42.7545 38.977 42.8732 38.9595 42.9746C38.9275 43.1378 38.9012 43.2745 38.886 43.3801C38.8633 43.5175 38.8394 43.6803 38.8132 43.8711C38.7998 43.9659 38.7812 44.1165 38.7579 44.3205L38.6995 44.849L38.6588 45.3611L38.6249 45.8352C38.6121 46.0782 38.6039 46.2505 38.601 46.3537V67.3982H36.7286V46.7147C36.7268 43.8611 35.9062 41.0715 34.3701 38.6955C32.8338 36.3195 30.6503 34.4622 28.0927 33.357C26.4044 32.6264 24.5912 32.2502 22.7595 32.2502H17.2452L16.3648 30.3066ZM67.9965 20.5977H57.2427C57.1616 20.5977 57.2428 20.601 57.0795 20.6082C56.5272 20.6292 55.9806 20.652 55.4276 20.6838L55.3914 20.6926L54.185 20.8121H54.1482L53.5544 20.8965C53.4692 20.9079 53.5294 20.9018 53.2459 20.948C52.9362 20.9966 53.0126 20.9841 52.9275 20.9967L52.3336 21.1027C52.2129 21.1273 52.3722 21.0965 52.0764 21.1625L51.7814 21.234H51.7754L51.6991 21.2551C51.6496 21.2655 51.6007 21.279 51.5527 21.2949L50.6 21.5498L50.5564 21.5586C50.5109 21.5712 50.5261 21.5703 50.3855 21.6189C50.291 21.6501 50.1161 21.708 49.9586 21.7584L49.3571 21.9477L49.3209 21.9576L48.7731 22.1469L48.7293 22.1709L47.6615 22.5969L47.6177 22.6115L47.3978 22.7088L47.3901 22.7158L47.0611 22.8682H47.0543C46.6903 23.038 46.9689 22.9019 46.7356 23.0135L46.5023 23.1266C46.4207 23.1668 46.4634 23.1484 46.2278 23.2684C45.9524 23.4082 46.0143 23.3746 45.9361 23.4172L45.7248 23.5303L45.7174 23.5379C45.5424 23.6345 45.3672 23.7306 45.1922 23.8314L43.4027 24.9459L43.2691 25.0367L41.7525 26.1594C41.6837 26.2146 41.7601 26.1543 41.4608 26.3949C41.3774 26.4591 41.315 26.5149 41.2754 26.5443L41.2392 26.5754L40.3682 27.3553L40.3392 27.3776C40.2225 27.4856 40.1123 27.5958 39.9992 27.7062C39.8866 27.5958 39.7722 27.4856 39.6591 27.3776L39.63 27.3553L38.7596 26.5754L38.7229 26.5443C38.6838 26.5119 38.6209 26.4591 38.5374 26.3949C38.2405 26.1549 38.3175 26.2146 38.2458 26.1594L36.7292 25.0367L36.5956 24.9459L34.8061 23.8314C34.6311 23.7306 34.4559 23.6345 34.2809 23.5379L34.2735 23.5303L34.0622 23.4172C33.9817 23.3746 34.0447 23.4082 33.7705 23.2684C33.5343 23.1484 33.577 23.1668 33.4953 23.1266L33.2621 23.0147C33.0288 22.9025 33.3074 23.0385 32.9434 22.8687H32.9366L32.607 22.7164L32.5993 22.7094L32.3794 22.6121L32.3356 22.5975L31.2675 22.1715L31.224 22.1475L30.6769 21.9582L30.6401 21.9482L30.0392 21.759C29.8811 21.7086 29.7061 21.6501 29.611 21.6195C29.471 21.5727 29.4862 21.5736 29.4407 21.5592L29.3971 21.5504L28.4444 21.2955C28.3963 21.2797 28.3475 21.2663 28.298 21.2557L28.2211 21.2346H28.2152L27.9201 21.1631C27.6238 21.0947 27.7831 21.1255 27.6629 21.1033L27.0685 20.9973C26.9839 20.9847 27.0593 20.9972 26.7501 20.9486C26.4666 20.9024 26.5259 20.9085 26.4413 20.8971L25.8484 20.8127H25.8113L24.6063 20.6932L24.5689 20.6844C24.0172 20.6526 23.47 20.6298 22.9176 20.6088C22.7537 20.6016 22.8355 20.5982 22.7538 20.5982H12.0006L12.8756 22.5389H22.7555C22.794 22.5389 22.8898 22.5444 23.2736 22.5576C23.5308 22.5684 23.7296 22.5756 23.8638 22.584C24.1718 22.6002 24.3596 22.6126 24.432 22.618L25.6381 22.741C25.7723 22.7584 25.9538 22.783 26.1802 22.8172C26.3674 22.8448 26.5628 22.8768 26.7634 22.9104C27.0679 22.9644 27.2429 22.9968 27.2989 23.0076C27.4301 23.034 27.5905 23.0739 27.7871 23.1207C27.923 23.1549 27.8733 23.1439 27.9981 23.1805H28.0081L28.9298 23.4277C29.0365 23.4607 29.0202 23.4605 29.4991 23.6123L30.0998 23.8016C30.2981 23.8688 30.4669 23.9281 30.6039 23.9785L31.672 24.4045C31.7455 24.4357 31.9169 24.5141 32.1841 24.6383C32.4349 24.7541 32.6054 24.8347 32.7021 24.8785C32.8643 24.9589 33.0392 25.0491 33.2271 25.1469C33.3006 25.1853 33.4707 25.2794 33.7338 25.4252L33.8545 25.4937L35.5714 26.5613L35.6879 26.6439L35.699 26.6551L36.196 26.9973C36.2701 27.0507 36.4199 27.1643 36.6491 27.3377L37.11 27.7074C37.3462 27.8952 37.495 28.0077 37.5463 28.0467L37.9781 28.4316L38.4096 28.8213C38.4784 28.8853 38.5705 28.9728 38.6856 29.0844L38.6913 29.0908L38.6984 29.0996L38.7066 29.1054L38.714 29.1149L38.7223 29.1225L38.7306 29.1301L38.738 29.1377L38.7462 29.1453L38.755 29.1547L38.7713 29.1699L38.7795 29.1787L38.7881 29.1863L38.7963 29.1957L38.8052 29.2045L38.8146 29.2127L38.8226 29.2221L38.8308 29.2303L38.8408 29.2397L39.2432 29.6346L39.2538 29.6469L39.2643 29.6568L39.2745 29.6685L39.2857 29.6791L39.2962 29.6903L39.3073 29.7014L39.3178 29.7131L39.329 29.7242L39.3395 29.7359L39.35 29.7471L39.3609 29.7594L39.3714 29.7717L39.3819 29.7834L39.3936 29.7951L39.4047 29.8074L39.4152 29.8185L39.4275 29.8308L39.4381 29.8431L39.4497 29.8554L39.4608 29.8683L39.4725 29.8795L39.4842 29.8929L39.4953 29.9035L39.5067 29.9176L39.5184 29.9293L39.53 29.9422L39.5417 29.9545L39.5534 29.9674L39.5656 29.9797L39.5768 29.9926L39.5879 30.0054L39.6001 30.0183L39.6124 30.0312L39.6246 30.0459L39.6357 30.0582L39.6479 30.0723L39.6602 30.0846L39.6724 30.098L39.6847 30.1103L39.6969 30.1256L39.7092 30.1379L39.7214 30.1526L39.7337 30.1654L39.7459 30.1795L39.7582 30.1929L39.7704 30.2064L39.7827 30.2205L39.7955 30.2334L39.8083 30.248L39.8211 30.2615L39.8334 30.2762L39.8456 30.2908L39.8585 30.3054L39.8707 30.3201L39.8829 30.3353L39.8952 30.3488L39.9083 30.3629L39.9211 30.3793L39.9339 30.3933L39.9467 30.408L39.9596 30.4227L39.9729 30.4379L39.9852 30.4531L39.998 30.4683L40.0114 30.4531L40.0236 30.4379L40.037 30.4227L40.0493 30.408L40.0621 30.3933L40.0749 30.3793L40.0877 30.3629L40.1005 30.3488L40.1128 30.3353L40.1256 30.3201L40.1384 30.3054L40.1515 30.2908L40.1643 30.2762L40.1771 30.2615L40.1894 30.248L40.2016 30.2334L40.2145 30.2205L40.2267 30.2064L40.239 30.1929L40.2512 30.1795L40.2634 30.1654L40.2757 30.1526L40.2879 30.1379L40.2996 30.1256L40.3113 30.1103L40.3236 30.098L40.3358 30.0846L40.3475 30.0723L40.3597 30.0582L40.372 30.0459L40.3836 30.0312L40.3959 30.0183L40.4081 30.0054L40.4192 29.9926L40.4315 29.9797L40.4431 29.9674L40.4546 29.9545L40.4662 29.9422L40.4785 29.9293L40.4896 29.9176L40.5012 29.9035L40.5124 29.8929L40.5246 29.8795L40.5363 29.8683L40.5469 29.8554L40.5585 29.8431L40.5696 29.8308L40.5807 29.8185L40.5912 29.8074L40.6035 29.7951L40.6141 29.7834L40.6251 29.7717L40.636 29.7594L40.6471 29.7471L40.6576 29.7359L40.6687 29.7242L40.6793 29.7131L40.6898 29.7014L40.7003 29.6903L40.7109 29.6791L40.7217 29.6685L40.7322 29.6568L40.7428 29.6469L40.7528 29.6346L41.1558 29.2397L41.1646 29.2303L41.174 29.2221L41.182 29.2127L41.1908 29.2045L41.2002 29.1957L41.2091 29.1863L41.2165 29.1787L41.2253 29.1699L41.2415 29.1547L41.2498 29.1453L41.258 29.1377L41.2654 29.1301L41.2743 29.1225L41.282 29.1149L41.2899 29.1054L41.2976 29.0996L41.305 29.0908L41.311 29.0844C41.4276 28.9724 41.5199 28.8849 41.5876 28.8213L42.0191 28.4316L42.4509 28.0467C42.5021 28.0047 42.6509 27.8952 42.8872 27.7074L43.3474 27.3377C43.5773 27.1643 43.7271 27.0507 43.8012 26.9973L44.2976 26.6551L44.3087 26.6439L44.4251 26.5613L46.1412 25.4937L46.2619 25.4252C46.525 25.2794 46.6954 25.1853 46.7689 25.1469C46.9562 25.0491 47.1317 24.9589 47.2939 24.8785C47.3895 24.8323 47.5605 24.7517 47.8113 24.6383C48.0785 24.5141 48.2494 24.4357 48.3234 24.4045L49.3915 23.9785C49.5291 23.9281 49.697 23.8692 49.8954 23.8016L50.4963 23.6123C50.9752 23.4605 50.9584 23.4607 51.0651 23.4277L51.987 23.1805H51.9976C52.1224 23.1433 52.0724 23.1543 52.2089 23.1207C52.4032 23.0739 52.5664 23.0334 52.697 23.0076C52.7554 22.9962 52.9304 22.9644 53.2325 22.9104C53.4332 22.8756 53.6292 22.8448 53.8158 22.8172C54.0422 22.783 54.2243 22.7572 54.3579 22.741L55.5635 22.618C55.6369 22.6126 55.8237 22.6008 56.1317 22.584C56.2664 22.5756 56.4651 22.5684 56.7224 22.5576C57.1056 22.5444 57.202 22.5389 57.2399 22.5389H67.1204L67.9965 20.5977ZM33.9123 46.7369L33.9041 46.2236L33.8918 46.0397C33.8878 45.9599 33.8826 45.8821 33.8761 45.8029L33.8699 45.7227L33.8634 45.6588V45.6441L33.8557 45.5668L33.8389 45.408L33.83 45.3289L33.8272 45.3084L33.8203 45.2516L33.8103 45.1725V45.1549L33.8015 45.0951L33.791 45.0178L33.7799 44.9439L33.7676 44.8654L33.7554 44.7951V44.7746C33.7396 44.6816 33.7234 44.5887 33.7053 44.4969L33.7002 44.4699L33.6773 44.3545L33.6685 44.3129L33.6563 44.2531L33.6395 44.177V44.1711L33.6255 44.1107V44.102L33.6079 44.0264L33.5899 43.9543L33.5717 43.8776L33.556 43.8178L33.5489 43.7879L33.5165 43.6637L33.5105 43.6449L33.4771 43.5219L33.4708 43.4984C33.444 43.406 33.416 43.3125 33.3874 43.2195V43.2107L33.3664 43.1451V43.1416L33.343 43.0678C33.3045 42.9477 33.2636 42.8315 33.2216 42.7115L33.2171 42.6998L33.1704 42.5732L33.1658 42.5603C33.1394 42.4899 33.1123 42.4203 33.0847 42.3512L33.0562 42.2803C33.0278 42.2095 32.9989 42.1399 32.9693 42.0711L32.9388 42.002C32.9085 41.933 32.8804 41.8641 32.8466 41.7957V41.7922C32.7941 41.68 32.7399 41.5663 32.6839 41.4547L32.65 41.3873C32.1235 40.3495 31.4484 39.3994 30.6475 38.5678C29.6176 37.4927 28.3904 36.6386 27.0371 36.0553C25.6839 35.4719 24.2317 35.1708 22.7643 35.1693H18.5593L19.4343 37.1117H22.7661C25.2372 37.1295 27.6011 38.1529 29.3413 39.9576C31.0816 41.7623 32.0567 44.202 32.0539 46.7439V67.4041H33.9263L33.9123 46.7369ZM61.4483 35.1623H57.2427C55.7755 35.1638 54.3231 35.4654 52.9699 36.0488C51.6168 36.6322 50.3897 37.4858 49.3599 38.5607C48.5589 39.3923 47.8841 40.343 47.3576 41.3808L47.3237 41.4482C47.2654 41.5604 47.2133 41.6729 47.1608 41.7857V41.7899C47.1299 41.8577 47.0991 41.9271 47.0688 41.9961L47.0384 42.0653C47.0092 42.1337 46.9801 42.203 46.9509 42.2744L46.923 42.3453C46.895 42.4143 46.8681 42.4837 46.8418 42.5545L46.8373 42.5674L46.79 42.6939L46.7857 42.7056C46.7437 42.8256 46.7023 42.9419 46.6644 43.0613L46.6408 43.1352V43.1387L46.6202 43.2049V43.2131C46.5911 43.3061 46.5619 43.4002 46.5368 43.4926L46.5302 43.516L46.4972 43.6385L46.4918 43.6578L46.4588 43.782L46.4516 43.8113L46.436 43.8717L46.4178 43.9484L46.3998 44.0205L46.3821 44.0961V44.1049L46.3682 44.1653V44.1711L46.352 44.2473L46.3397 44.307L46.3314 44.3486L46.3081 44.4635L46.303 44.491C46.2855 44.583 46.2691 44.6756 46.254 44.7687L46.2497 44.7887L46.2386 44.859L46.2264 44.9375L46.2141 45.0113L46.2038 45.0887L46.1956 45.149V45.1666L46.1851 45.2457L46.1788 45.3026L46.1757 45.323L46.1671 45.4022L46.15 45.5603L46.1432 45.6377V45.6529L46.1372 45.7168L46.1309 45.7971C46.1251 45.8763 46.1191 45.9534 46.1144 46.0332L46.0942 46.731V67.3918H47.9666V46.731C47.9638 44.1893 48.9387 41.7494 50.6789 39.9447C52.419 38.1401 54.7828 37.1173 57.2538 37.0994H60.5856L61.4483 35.1623Z" fill="#CCAA77"/>
</svg>
