<svg width="80" height="80" viewBox="0 0 80 80" fill="none" xmlns="http://www.w3.org/2000/svg">
<path d="M80 40C80 62.0914 62.0914 80 40 80C17.9086 80 0 62.0914 0 40C0 17.9086 17.9086 0 40 0C62.0914 0 80 17.9086 80 40Z" fill="white"/>
<path fill-rule="evenodd" clip-rule="evenodd" d="M22.7438 19H38.9162C39.9083 19.003 40.8589 19.3977 41.5605 20.098C42.2621 20.7982 42.6575 21.7471 42.6605 22.7374V23.3585H28.3307C27.6758 23.3592 27.0274 23.4888 26.4227 23.7399C25.8181 23.9911 25.269 24.3588 24.8069 24.8221L24.8031 24.8265C24.3389 25.2877 23.9705 25.8358 23.7189 26.4393C23.4672 27.0429 23.3374 27.69 23.3367 28.3437V42.6174H22.7444C21.7521 42.6147 20.8013 42.22 20.0997 41.5197C19.3981 40.8194 19.0027 39.8704 19 38.88V22.7374C19.0029 21.7471 19.3982 20.7983 20.0996 20.098C20.8011 19.3978 21.7517 19.003 22.7438 19Z" fill="#4EC1F1"/>
<path fill-rule="evenodd" clip-rule="evenodd" d="M28.3306 24.4567H45.1476C46.1793 24.4597 47.1679 24.8701 47.8974 25.5983C48.627 26.3264 49.0381 27.3132 49.0412 28.3429V28.8037H34.2498C33.4866 28.7647 32.7242 28.8948 32.0173 29.1846C31.3104 29.4744 30.6765 29.9167 30.1611 30.4798C29.1614 31.7408 28.6578 33.323 28.745 34.9287V49.0146H28.3332C27.3015 49.0114 26.313 48.6009 25.5835 47.8728C24.854 47.1447 24.4428 46.158 24.4396 45.1283V28.3436C24.4424 27.3141 24.8532 26.3276 25.5822 25.5994C26.3112 24.8712 27.2993 24.4604 28.3306 24.4567Z" fill="#71B164"/>
<path fill-rule="evenodd" clip-rule="evenodd" d="M34.2472 29.9035H56.5956C57.7627 29.9069 58.881 30.3711 59.7062 31.1948C60.5314 32.0184 60.9965 33.1346 60.9999 34.2995V56.604C60.9965 57.7689 60.5314 58.8851 59.7062 59.7088C58.881 60.5325 57.7627 60.9967 56.5956 61H34.2472C33.0801 60.9967 31.9618 60.5325 31.1366 59.7088C30.3114 58.8851 29.8463 57.7689 29.8429 56.604V34.9295C29.8429 31.7852 31.3392 29.9022 34.2472 29.9022V29.9035ZM40.7146 50.2767C40.4188 49.9477 39.5071 47.3717 38.1471 46.6679C37.4598 46.3121 35.5108 47.9489 35.2902 48.8595C35.1761 49.3323 35.6536 49.723 35.88 50.0209C36.7312 51.0561 37.4535 52.1905 38.0311 53.3993C38.5992 54.4283 38.677 54.863 40.0668 55.0392C41.7532 54.9832 41.8679 55.113 42.5533 54.0249C43.0858 53.3139 43.5725 52.57 44.0108 51.7976C47.7437 45.3162 50.8965 41.6285 56.2998 36.4459L56.6766 35.0275C50.7973 38.7615 45.6961 43.5941 41.6537 49.2598C41.4127 49.6104 41.2004 50.2334 40.7146 50.2767Z" fill="#008DDB"/>
</svg>
