<svg width="24" height="24" viewBox="0 0 24 24" fill="none" xmlns="http://www.w3.org/2000/svg">
<path d="M12.7755 20.3208L3.95454 16.2366L7.16876 14.6053C6.8456 14.2822 6.46526 13.8525 6.19282 13.5234L2.02516 15.6384C1.50166 15.9043 1.5169 16.6583 2.04813 16.9036L14.1381 22.5009C13.6564 21.8315 13.1793 21.0787 12.7755 20.3208Z" fill="#0065C1"/>
<path d="M8.62469 0C5.96248 0 3.79657 2.16591 3.79657 4.82812C3.79657 9.19416 7.95068 13.3985 8.12754 13.5753C8.40209 13.8499 8.8473 13.8499 9.1219 13.5753C9.29871 13.3985 13.4529 9.19416 13.4529 4.82812C13.4528 2.16591 11.2869 0 8.62469 0ZM8.60159 6.86719C7.47724 6.86719 6.56252 5.95247 6.56252 4.82812C6.56252 3.70378 7.47724 2.78906 8.60159 2.78906C9.72593 2.78906 10.6406 3.70378 10.6406 4.82812C10.6406 5.95247 9.72593 6.86719 8.60159 6.86719Z" fill="#0065C1"/>
<path d="M8.60156 4.19531C8.25263 4.19531 7.96875 4.47919 7.96875 4.82812C7.96875 5.17706 8.25263 5.46094 8.60156 5.46094C8.9505 5.46094 9.23438 5.17706 9.23438 4.82812C9.23438 4.47919 8.9505 4.19531 8.60156 4.19531Z" fill="#0065C1"/>
<path d="M17.5309 10.2188C14.8687 10.2188 12.7028 12.3847 12.7028 15.0469C12.7028 19.4129 16.8569 23.6172 17.0338 23.794C17.3083 24.0686 17.7536 24.0687 18.0281 23.794C18.205 23.6172 22.3591 19.4129 22.3591 15.0469C22.3591 12.3847 20.1932 10.2188 17.5309 10.2188ZM17.5078 17.1094C16.3835 17.1094 15.4688 16.1947 15.4688 15.0703C15.4688 13.946 16.3835 13.0312 17.5078 13.0312C18.6322 13.0312 19.5469 13.946 19.5469 15.0703C19.5469 16.1947 18.6322 17.1094 17.5078 17.1094Z" fill="#0065C1"/>
<path d="M17.5078 14.4375C17.1589 14.4375 16.875 14.7214 16.875 15.0703C16.875 15.4193 17.1589 15.7031 17.5078 15.7031C17.8568 15.7031 18.1406 15.4193 18.1406 15.0703C18.1406 14.7214 17.8568 14.4375 17.5078 14.4375Z" fill="#0065C1"/>
</svg>
