<svg width="19" height="18" viewBox="0 0 19 18" fill="none" xmlns="http://www.w3.org/2000/svg">
<path d="M8.13432 0C3.7636 0 0.20752 3.55608 0.20752 7.9268C0.20752 12.2978 3.7636 15.8536 8.13432 15.8536C12.5053 15.8536 16.0611 12.2978 16.0611 7.9268C16.0611 3.55608 12.5053 0 8.13432 0ZM8.13432 14.3902C4.57044 14.3902 1.67093 11.4907 1.67093 7.92684C1.67093 4.36295 4.57044 1.46341 8.13432 1.46341C11.6982 1.46341 14.5977 4.36292 14.5977 7.9268C14.5977 11.4907 11.6982 14.3902 8.13432 14.3902Z" fill="black"/>
<path d="M17.9932 16.7511L13.798 12.5559C13.5122 12.2701 13.0493 12.2701 12.7634 12.5559C12.4775 12.8416 12.4775 13.305 12.7634 13.5906L16.9585 17.7857C17.1014 17.9286 17.2885 18.0001 17.4758 18.0001C17.6629 18.0001 17.8502 17.9286 17.9932 17.7857C18.279 17.5001 18.279 17.0367 17.9932 16.7511Z" fill="black"/>
</svg>
